inDegrees=no
num_controls=7
num_derivatives=13
num_iterations=113
num_multipliers=7
num_parameters=0
num_slacks=7
num_states=26
objective=0.444684
objective_accelerations=0.058689
objective_balance=0.003674
objective_effort=0.023688
objective_height=0.353138
objective_ligament=0.005495
solver_duration=1642.715340
status=Solve_Succeeded
success=true
DataType=double
version=3
OpenSimVersion=4.5
endheader
time	/jointset/ground_pelvis/pelvis_tilt/value	/jointset/ground_pelvis/pelvis_tx/value	/jointset/ground_pelvis/pelvis_ty/value	/jointset/hip_l/hip_flexion_l/value	/jointset/hip_l/hip_adduction_l/value	/jointset/hip_l/hip_rotation_l/value	/jointset/back/lumbar_extension/value	/jointset/patellofemoral_l/patellar_flexion_l/value	/jointset/knee_l/knee_flexion_l/value	/jointset/knee_l/knee_adduction_l/value	/jointset/knee_l/knee_rotation_l/value	/jointset/ankle_l/ankle_angle_l/value	/jointset/subtalar_l/subtalar_angle_l/value	/jointset/ground_pelvis/pelvis_tilt/speed	/jointset/ground_pelvis/pelvis_tx/speed	/jointset/ground_pelvis/pelvis_ty/speed	/jointset/hip_l/hip_flexion_l/speed	/jointset/hip_l/hip_adduction_l/speed	/jointset/hip_l/hip_rotation_l/speed	/jointset/back/lumbar_extension/speed	/jointset/patellofemoral_l/patellar_flexion_l/speed	/jointset/knee_l/knee_flexion_l/speed	/jointset/knee_l/knee_adduction_l/speed	/jointset/knee_l/knee_rotation_l/speed	/jointset/ankle_l/ankle_angle_l/speed	/jointset/subtalar_l/subtalar_angle_l/speed	/forceset/tau_hip_flexion_l	/forceset/tau_hip_adduction_l	/forceset/tau_hip_rotation_l	/forceset/tau_knee_flexion_l	/forceset/tau_ankle_angle_l	/forceset/tau_subtalar_angle_l	/forceset/tau_lumbar_extension	lambda_cid13_p0	lambda_cid13_p1	lambda_cid13_p2	lambda_cid13_p3	lambda_cid13_p4	lambda_cid13_p5	lambda_cid14_p0	/jointset/ground_pelvis/pelvis_tilt/accel	/jointset/ground_pelvis/pelvis_tx/accel	/jointset/ground_pelvis/pelvis_ty/accel	/jointset/hip_l/hip_flexion_l/accel	/jointset/hip_l/hip_adduction_l/accel	/jointset/hip_l/hip_rotation_l/accel	/jointset/back/lumbar_extension/accel	/jointset/patellofemoral_l/patellar_flexion_l/accel	/jointset/knee_l/knee_flexion_l/accel	/jointset/knee_l/knee_adduction_l/accel	/jointset/knee_l/knee_rotation_l/accel	/jointset/ankle_l/ankle_angle_l/accel	/jointset/subtalar_l/subtalar_angle_l/accel	gamma_cid13_p0	gamma_cid13_p1	gamma_cid13_p2	gamma_cid13_p3	gamma_cid13_p4	gamma_cid13_p5	gamma_cid14_p0
0.5	-0.3538729468873539	-0.04420909968539519	0.7558415841459194	1.126872883577342	-0.4369425758952811	-0.2182053677854157	-0.2543877870317804	0.8132546349063084	0.8132546349062242	-0.1281332808466831	-0.1578230218901758	0.1007158455114512	-0.03663232894738649	-0.8021381386015825	-0.2305987711525218	-0.548612755252138	2.552889858472621	-0.203966921864714	0.7516116719811382	-0.1154699381524631	2.006218453490142	2.0062184534903	0.1308118294917013	-0.09212136713096389	0.4290841080509356	-0.01550767228352952	-0.1766019819836211	0.02377179771796098	-0.01071948476258992	-0.214396155520741	0.06856226746953566	0.04257945150984538	0.1721808513154685	-10.76916673429009	-19.55604789826347	6.150770319418126	-5.980574462612121	-521.4910140832325	-59.54515160462428	-24.83789205157677	0.8652138960909384	0.6205807280472122	-0.4751154759875338	-1.402685122391461	0.7551644766166266	-0.201312907579759	1.098350161303739	-1.286476649609993	-1.286476649610022	0.09155141115138568	0.1877577841057051	-0.5455900287197419	0.5352181336216498	-5.622998114794877e-07	-4.258308316379187e-07	2.858283764955969e-06	1.546511151450072e-07	-6.514237596799222e-07	1.289715439860779e-07	-4.681024727368932e-07
0.51	-0.3618490846795416	-0.04648375713159059	0.7503329121021384	1.152326646948735	-0.4389456664814362	-0.2106981240222786	-0.2554888008599507	0.8332494096098852	0.8332494096099055	-0.1268249639527427	-0.1587343934790235	0.1049782527823234	-0.03676256766461351	-0.7929710220967461	-0.2243107605751222	-0.5530033300961912	2.537510827451953	-0.1966353027917247	0.749727894123778	-0.1047742451303474	1.992470683217128	1.992470683217223	0.1308526645191588	-0.09015094855579822	0.4233285087772388	-0.01054877451328844	-0.1822804977657675	0.02433850316675643	-0.01082264259424123	-0.2172065174658022	0.06838144924804733	0.04299699001067184	0.1765153975290457	-11.03700649585947	-19.66599385389947	6.140319492634386	-5.971061349064514	-525.2552374607895	-59.20231857437341	-23.91393122400351	0.9601494258281874	0.6362384904316988	-0.4034076007039945	-1.658393526559772	0.7242185714144973	-0.1986935483331789	1.048966225409322	-1.45870475591324	-1.458704755922758	-0.03943624989973605	0.2025690384690912	-0.6008597984700664	0.4746406703785675	-5.497891804259325e-07	-3.231591450873093e-07	2.908933147494842e-06	1.788360878489098e-07	-6.278114718252905e-07	2.057460251776632e-07	-4.612488362494454e-07
0.52	-0.3697300135270505	-0.048694869018443	0.744783858487499	1.177616043722987	-0.4408750292871068	-0.2032130747024179	-0.2564841002873515	0.8530987511027809	0.853098751102903	-0.1255161958682191	-0.1596258838532653	0.1091810410761037	-0.03684353438980743	-0.7830963496659838	-0.217889659283923	-0.5566890694238276	2.520016539045067	-0.1892213657677596	0.747172783325658	-0.09432705799847674	1.97713181135347	1.977131811353501	0.1309020676089115	-0.0881451242107487	0.4171603126325256	-0.005653273876917254	-0.187959013547936	0.02490520861555314	-0.0109258004259416	-0.2200168794108586	0.06820063102656339	0.04341452851150283	0.1808499437425994	-11.30869733805715	-19.77626303457472	6.13106148019841	-5.993000678022095	-529.1042607302372	-58.92052180055005	-22.99138660273395	1.006725081276107	0.6471988708070793	-0.3341483727042115	-1.825736599635277	0.7716280668117755	-0.3355794957317547	1.048648983254751	-1.604696967738759	-1.604696967738983	0.0932650236104568	0.1948389380824753	-0.6281094029230503	0.5225387068476525	-5.354639253078674e-07	-2.378732856073308e-07	2.932568905897649e-06	2.003130265164746e-07	-6.069915883467141e-07	2.807295387508653e-07	-4.530491204021353e-07
0.53	-0.3775088496074341	-0.05084122224104789	0.7392014956870483	1.202720264185217	-0.4427298485942178	-0.1957564704041332	-0.2573762700594201	0.8727868492149994	0.8727868492152852	-0.1242071160339392	-0.1604968682998344	0.1133200836586911	-0.03687588418098271	-0.7725597027932218	-0.2113697617949029	-0.5596615638538788	2.500487502339379	-0.1817344932805484	0.7440551266722036	-0.08417009509467624	1.960226162058823	1.960226162058825	0.1308967179287051	-0.0860400467887872	0.4105763115237769	-0.0008362880522279775	-0.1935219540796173	0.0253340165658319	-0.01096367581438087	-0.2228066353686403	0.0678841418687174	0.04366769716884951	0.1850331694007334	-11.62769297215458	-19.80087179872887	6.101300834020305	-5.851495127406451	-532.90597540217	-58.5388184164597	-22.0719790597483	1.093737680178452	0.6561110229532808	-0.2606301674888829	-2.067578295247899	0.7380626688879962	-0.3141864412001015	0.9897401420831263	-1.772656516574828	-1.772656516578979	-0.0499484508136655	0.2206939841054727	-0.6843084294568035	0.4580249398864513	-5.191529386893781e-07	-1.375120414746018e-07	2.966454659372634e-06	2.274268933946072e-07	-5.865488391785433e-07	3.571869464972398e-07	-4.426756830161149e-07
